<svg viewBox="0 0 480 218" width="100%" xmlns="http://www.w3.org/2000/svg">
<text x="240" y="18" font-size="12" font-weight="700" text-anchor="middle" fill="#0f172a">Signal-to-Noise (Cases/Alert)</text>
<text x="152" y="53" font-size="8" text-anchor="end" fill="#1e293b">VibeScan</text>
<rect x="160" y="41" width="302" height="15" rx="7" fill="#e2e8f0"/>
<rect x="160" y="41" width="302" height="15" rx="7" fill="#16a34a"/>
<text x="466" y="53" font-size="8" fill="#334155">0.440</text>
<text x="152" y="79" font-size="8" text-anchor="end" fill="#1e293b">Semgrep</text>
<rect x="160" y="67" width="302" height="15" rx="7" fill="#e2e8f0"/>
<rect x="160" y="67" width="249.58677685950414" height="15" rx="7" fill="#6366f1"/>
<text x="466" y="79" font-size="8" fill="#334155">0.364</text>
<text x="152" y="105" font-size="8" text-anchor="end" fill="#1e293b">Bearer</text>
<rect x="160" y="93" width="302" height="15" rx="7" fill="#e2e8f0"/>
<rect x="160" y="93" width="177.12609970674487" height="15" rx="7" fill="#6366f1"/>
<text x="466" y="105" font-size="8" fill="#334155">0.258</text>
<text x="152" y="131" font-size="8" text-anchor="end" fill="#1e293b">Snyk Code</text>
<rect x="160" y="119" width="302" height="15" rx="7" fill="#e2e8f0"/>
<rect x="160" y="119" width="133.45959595959596" height="15" rx="7" fill="#6366f1"/>
<text x="466" y="131" font-size="8" fill="#334155">0.194</text>
<text x="152" y="157" font-size="8" text-anchor="end" fill="#1e293b">CodeQL</text>
<rect x="160" y="145" width="302" height="15" rx="7" fill="#e2e8f0"/>
<rect x="160" y="145" width="89.52569169960475" height="15" rx="7" fill="#6366f1"/>
<text x="466" y="157" font-size="8" fill="#334155">0.130</text>
<text x="152" y="183" font-size="8" text-anchor="end" fill="#1e293b">eslint-plugin-security</text>
<rect x="160" y="171" width="302" height="15" rx="7" fill="#e2e8f0"/>
<rect x="160" y="171" width="1.3922183293380048" height="15" rx="7" fill="#6366f1"/>
<text x="466" y="183" font-size="8" fill="#334155">0.002</text>
</svg>